<svg width="2282" height="995" viewBox="0 0 2282 995" fill="none" xmlns="http://www.w3.org/2000/svg">
<path d="M25.4823 494H190.698M25.4823 494L82.6722 265.241M25.4823 494L146 397M25.4823 494L82.6722 722.76M25.4823 494L146 586M190.698 494L222.47 335.14M190.698 494L146 397M190.698 494L222.47 652.861M190.698 494L146 586M222.47 335.14L317.786 246.177M222.47 335.14L254.242 93.6711M222.47 335.14L146 397M222.47 335.14L82.6722 265.241M82.6722 265.241L254.242 93.6711M82.6722 265.241L146 397M254.242 93.6711L317.786 246.177M254.242 93.6711L457.584 30.1268M254.242 93.6711L438.52 182.633M317.786 246.177L438.52 182.633M457.584 30.1268H673.634M457.584 30.1268L554.323 107.518M457.584 30.1268L438.52 182.633M673.634 30.1268L648.217 182.633M673.634 30.1268L845.204 49.1901M673.634 30.1268L554.323 107.518M673.634 30.1268L744.262 117.57M648.217 182.633L807.077 195.342M648.217 182.633H438.52M648.217 182.633L744.262 117.57M648.217 182.633L554.323 107.518M807.077 195.342L845.204 49.1901M807.077 195.342L744.262 117.57M845.204 49.1901L744.262 117.57M438.52 182.633L554.323 107.518M222.47 652.861L317.786 741.823M222.47 652.861L254.242 894.329M222.47 652.861L146 586M222.47 652.861L82.6722 722.76M82.6722 722.76L254.242 894.329M82.6722 722.76L146 586M254.242 894.329L317.786 741.823M254.242 894.329L457.584 957.874M254.242 894.329L438.52 805.367M317.786 741.823L438.52 805.367M457.584 957.874H673.634M457.584 957.874L554.323 880.482M457.584 957.874L438.52 805.367M673.634 957.874L648.217 805.367M673.634 957.874L845.204 938.81M673.634 957.874L554.323 880.482M673.634 957.874L744.262 870.43M648.217 805.367L807.077 792.659M648.217 805.367H438.52M648.217 805.367L744.262 870.43M648.217 805.367L554.323 880.482M807.077 792.659L845.204 938.81M807.077 792.659L744.262 870.43M845.204 938.81L744.262 870.43M438.52 805.367L554.323 880.482" stroke="url(#paint0_linear_37_19)" stroke-width="15"/>
<path d="M872.712 64.2107C863.689 74.9643 847.657 76.367 836.903 67.3437C826.149 58.3203 824.747 42.2879 833.77 31.5343C842.794 20.7808 858.826 19.3781 869.58 28.4014C880.333 37.4248 881.736 53.4572 872.712 64.2107Z" fill="url(#paint1_linear_37_19)"/>
<path d="M830.046 216.717C821.023 227.471 804.99 228.873 794.237 219.85C783.483 210.827 782.081 194.794 791.104 184.041C800.127 173.287 816.159 171.884 826.913 180.908C837.667 189.931 839.069 205.963 830.046 216.717Z" fill="url(#paint2_linear_37_19)"/>
<path d="M697.323 36.1658C691.39 48.8884 676.267 54.3927 663.544 48.4601C650.822 42.5274 645.317 27.4044 651.25 14.6818C657.183 1.95921 672.306 -3.54513 685.028 2.38751C697.751 8.32015 703.255 23.4432 697.323 36.1658Z" fill="url(#paint3_linear_37_19)"/>
<path d="M670.905 196.381C664.972 209.104 649.849 214.608 637.127 208.675C624.404 202.743 618.9 187.62 624.832 174.897C630.765 162.174 645.888 156.67 658.61 162.603C671.333 168.535 676.837 183.658 670.905 196.381Z" fill="url(#paint4_linear_37_19)"/>
<path d="M477.934 33.2134C475.497 47.038 462.313 56.2689 448.489 53.8313C434.664 51.3936 425.433 38.2105 427.871 24.3859C430.309 10.5614 443.492 1.33048 457.316 3.76812C471.141 6.20576 480.372 19.3889 477.934 33.2134Z" fill="url(#paint5_linear_37_19)"/>
<path d="M465.225 192.429C462.788 206.253 449.605 215.484 435.78 213.046C421.955 210.609 412.725 197.426 415.162 183.601C417.6 169.777 430.783 160.546 444.607 162.983C458.432 165.421 467.663 178.604 465.225 192.429Z" fill="url(#paint6_linear_37_19)"/>
<path d="M273.951 78.9566C280.193 91.5303 275.06 106.783 262.486 113.025C249.912 119.267 234.659 114.134 228.417 101.561C222.176 88.9868 227.309 73.7337 239.882 67.4918C252.456 61.2499 267.709 66.3829 273.951 78.9566Z" fill="url(#paint7_linear_37_19)"/>
<path d="M342.495 236.172C348.737 248.746 343.604 263.999 331.031 270.241C318.457 276.482 303.204 271.349 296.962 258.776C290.72 246.202 295.853 230.949 308.427 224.707C321 218.465 336.253 223.598 342.495 236.172Z" fill="url(#paint8_linear_37_19)"/>
<path d="M91.1212 241.902C102.914 249.518 106.301 265.251 98.6853 277.044C91.0701 288.836 75.3368 292.223 63.544 284.608C51.7513 276.993 48.3648 261.259 55.98 249.467C63.5952 237.674 79.3285 234.287 91.1212 241.902Z" fill="url(#paint9_linear_37_19)"/>
<path d="M243.628 318.156C255.42 325.771 258.807 341.504 251.192 353.297C243.576 365.09 227.843 368.476 216.05 360.861C204.258 353.246 200.871 337.512 208.486 325.72C216.102 313.927 231.835 310.54 243.628 318.156Z" fill="url(#paint10_linear_37_19)"/>
<path d="M25.4177 469.582C39.4555 469.582 50.8354 480.962 50.8354 495C50.8354 509.038 39.4555 520.418 25.4177 520.418C11.3799 520.418 0 509.038 0 495C0 480.962 11.3799 469.582 25.4177 469.582Z" fill="url(#paint11_linear_37_19)"/>
<path d="M206 469.582C220.038 469.582 231.417 480.962 231.417 495C231.417 509.038 220.038 520.418 206 520.418C191.962 520.418 180.582 509.038 180.582 495C180.582 480.962 191.962 469.582 206 469.582Z" fill="url(#paint12_linear_37_19)"/>
<path d="M872.712 925.789C863.689 915.036 847.657 913.633 836.903 922.656C826.149 931.68 824.747 947.712 833.77 958.466C842.794 969.219 858.826 970.622 869.58 961.599C880.333 952.575 881.736 936.543 872.712 925.789Z" fill="url(#paint13_linear_37_19)"/>
<path d="M830.046 773.283C821.023 762.529 804.99 761.127 794.237 770.15C783.483 779.173 782.081 795.206 791.104 805.959C800.127 816.713 816.159 818.116 826.913 809.092C837.667 800.069 839.069 784.037 830.046 773.283Z" fill="url(#paint14_linear_37_19)"/>
<path d="M696.323 958.834C690.39 946.112 675.267 940.607 662.544 946.54C649.822 952.473 644.317 967.596 650.25 980.318C656.183 993.041 671.306 998.545 684.028 992.613C696.751 986.68 702.255 971.557 696.323 958.834Z" fill="url(#paint15_linear_37_19)"/>
<path d="M670.905 789.619C664.972 776.896 649.849 771.392 637.127 777.325C624.404 783.257 618.9 798.38 624.832 811.103C630.765 823.826 645.888 829.33 658.61 823.397C671.333 817.465 676.837 802.342 670.905 789.619Z" fill="url(#paint16_linear_37_19)"/>
<path d="M477.934 956.787C475.497 942.962 462.313 933.731 448.489 936.169C434.664 938.606 425.433 951.789 427.871 965.614C430.309 979.439 443.492 988.67 457.316 986.232C471.141 983.794 480.372 970.611 477.934 956.787Z" fill="url(#paint17_linear_37_19)"/>
<path d="M466.225 795.571C463.788 781.747 450.605 772.516 436.78 774.954C422.955 777.391 413.725 790.574 416.162 804.399C418.6 818.223 431.783 827.454 445.607 825.017C459.432 822.579 468.663 809.396 466.225 795.571Z" fill="url(#paint18_linear_37_19)"/>
<path d="M272.951 909.043C279.193 896.47 274.06 881.217 261.486 874.975C248.912 868.733 233.659 873.866 227.417 886.44C221.176 899.013 226.309 914.266 238.882 920.508C251.456 926.75 266.709 921.617 272.951 909.043Z" fill="url(#paint19_linear_37_19)"/>
<path d="M343.495 753.828C349.737 741.254 344.604 726.001 332.031 719.759C319.457 713.518 304.204 718.651 297.962 731.224C291.72 743.798 296.853 759.051 309.427 765.293C322 771.535 337.253 766.402 343.495 753.828Z" fill="url(#paint20_linear_37_19)"/>
<path d="M91.1212 748.098C102.914 740.482 106.301 724.749 98.6853 712.956C91.0701 701.164 75.3368 697.777 63.544 705.392C51.7513 713.007 48.3648 728.741 55.98 740.533C63.5952 752.326 79.3285 755.713 91.1212 748.098Z" fill="url(#paint21_linear_37_19)"/>
<path d="M243.628 671.844C255.42 664.229 258.807 648.496 251.192 636.703C243.576 624.91 227.843 621.524 216.05 629.139C204.258 636.754 200.871 652.488 208.486 664.28C216.102 676.073 231.835 679.46 243.628 671.844Z" fill="url(#paint22_linear_37_19)"/>
<path d="M25.4177 520.418C39.4555 520.418 50.8354 509.038 50.8354 495C50.8354 480.962 39.4555 469.582 25.4177 469.582C11.3799 469.582 0 480.962 0 495C0 509.038 11.3799 520.418 25.4177 520.418Z" fill="url(#paint23_linear_37_19)"/>
<path d="M206 520.418C220.038 520.418 231.417 509.038 231.417 495C231.417 480.962 220.038 469.582 206 469.582C191.962 469.582 180.582 480.962 180.582 495C180.582 509.038 191.962 520.418 206 520.418Z" fill="url(#paint24_linear_37_19)"/>
<path d="M655.6 446.6C646.267 435.133 635.067 426.2 622 419.8C608.933 413.133 595.867 409.8 582.8 409.8C570.8 409.8 559.6 412.067 549.2 416.6C539.067 421.133 530 427.533 522 435.8C514.267 443.8 508.267 453.267 504 464.2C499.733 475.133 497.6 487 497.6 499.8C497.6 512.333 499.733 524.067 504 535C508.267 545.933 514.267 555.533 522 563.8C530 571.8 539.067 578.2 549.2 583C559.6 587.533 570.8 589.8 582.8 589.8C595.6 589.8 608.4 586.867 621.2 581C634 574.867 645.467 566.733 655.6 556.6L692.8 595.4C682.933 605.533 671.733 614.333 659.2 621.8C646.933 629.267 634 635.133 620.4 639.4C606.8 643.4 593.2 645.4 579.6 645.4C558.533 645.4 539.067 641.8 521.2 634.6C503.6 627.133 488.133 616.867 474.8 603.8C461.733 590.467 451.467 575 444 557.4C436.533 539.8 432.8 520.733 432.8 500.2C432.8 479.933 436.533 461.133 444 443.8C451.467 426.467 462 411.267 475.6 398.2C489.2 385.133 504.933 375 522.8 367.8C540.933 360.6 560.667 357 582 357C595.6 357 609.067 358.867 622.4 362.6C636 366.333 648.667 371.667 660.4 378.6C672.4 385.267 683.067 393.533 692.4 403.4L655.6 446.6ZM821.456 424.2C844.39 424.2 864.523 428.733 881.856 437.8C899.19 446.867 912.656 459.667 922.256 476.2C931.856 492.467 936.656 511.533 936.656 533.4C936.656 555.267 931.856 574.467 922.256 591C912.656 607.533 899.19 620.333 881.856 629.4C864.523 638.467 844.39 643 821.456 643C798.523 643 778.256 638.467 760.656 629.4C743.323 620.333 729.856 607.533 720.256 591C710.656 574.467 705.856 555.267 705.856 533.4C705.856 511.533 710.656 492.467 720.256 476.2C729.856 459.667 743.323 446.867 760.656 437.8C778.256 428.733 798.523 424.2 821.456 424.2ZM821.456 473.4C810.79 473.4 801.323 475.933 793.056 481C785.056 486.067 778.79 493.267 774.256 502.6C769.723 511.667 767.456 522.2 767.456 534.2C767.456 546.2 769.723 556.867 774.256 566.2C778.79 575.267 785.056 582.467 793.056 587.8C801.323 592.867 810.79 595.4 821.456 595.4C832.123 595.4 841.456 592.867 849.456 587.8C857.456 582.467 863.723 575.267 868.256 566.2C872.79 556.867 875.056 546.2 875.056 534.2C875.056 522.2 872.79 511.667 868.256 502.6C863.723 493.267 857.456 486.067 849.456 481C841.456 475.933 832.123 473.4 821.456 473.4ZM1110.18 479.4C1095.78 478.067 1083.11 479.8 1072.18 484.6C1061.51 489.4 1053.25 496.333 1047.38 505.4C1041.78 514.467 1038.98 525.267 1038.98 537.8L1023.38 535C1023.38 511.533 1026.85 491.533 1033.78 475C1040.98 458.467 1051.11 445.8 1064.18 437C1077.25 428.2 1092.58 423.8 1110.18 423.8V479.4ZM977.381 426.2H1038.98V641H977.381V426.2ZM1214.59 567.8C1214.59 577.4 1216.45 584.2 1220.19 588.2C1223.92 591.933 1228.99 593.667 1235.39 593.4C1239.39 593.4 1243.79 592.733 1248.59 591.4C1253.39 590.067 1258.59 588.067 1264.19 585.4L1276.99 628.6C1268.99 633.4 1260.19 637.133 1250.59 639.8C1240.99 642.467 1231.12 643.8 1220.99 643.8C1208.19 643.8 1196.59 641.4 1186.19 636.6C1176.05 631.8 1168.05 624.467 1162.19 614.6C1156.32 604.733 1153.39 592.467 1153.39 577.8V376.2H1214.59V567.8ZM1123.39 435.4H1272.99V476.6H1123.39V435.4ZM1452.94 516.2C1452.67 506.333 1450.54 497.933 1446.54 491C1442.8 483.8 1437.34 478.2 1430.14 474.2C1422.94 470.2 1414.67 468.2 1405.34 468.2C1394.94 468.2 1385.87 470.867 1378.14 476.2C1370.4 481.533 1364.4 488.867 1360.14 498.2C1355.87 507.533 1353.74 518.333 1353.74 530.6C1353.74 544.467 1356.14 556.333 1360.94 566.2C1365.74 576.067 1372.54 583.667 1381.34 589C1390.14 594.333 1400.27 597 1411.74 597C1432.54 597 1450.67 589.267 1466.14 573.8L1498.54 605.8C1487.87 617.8 1474.67 627 1458.94 633.4C1443.47 639.8 1426 643 1406.54 643C1383.6 643 1363.74 638.467 1346.94 629.4C1330.14 620.333 1317.07 607.667 1307.74 591.4C1298.67 574.867 1294.14 555.8 1294.14 534.2C1294.14 512.067 1298.8 492.867 1308.14 476.6C1317.47 460.067 1330.4 447.267 1346.94 438.2C1363.74 429.133 1383.07 424.467 1404.94 424.2C1430.27 424.2 1450.94 429.533 1466.94 440.2C1483.2 450.6 1494.94 465.4 1502.14 484.6C1509.6 503.533 1512.4 526.067 1510.54 552.2H1344.94V516.2H1452.94ZM1517.5 426.2H1587.9L1627.5 492.6L1669.5 426.2H1736.7L1668.3 531L1741.5 641H1670.7L1627.5 569.4L1580.3 641H1512.3L1586.7 531L1517.5 426.2ZM1973.66 361H2038.46L2157.66 641H2090.46L2004.06 424.2L1917.26 641H1851.66L1973.66 361ZM1919.66 535.8H2084.86V585H1919.66V535.8ZM2187.18 361H2250.38V641H2187.18V361Z" fill="url(#paint25_linear_37_19)"/>
<defs>
<linearGradient id="paint0_linear_37_19" x1="50.9" y1="502.354" x2="851.558" y2="508.708" gradientUnits="userSpaceOnUse">
<stop stop-color="#2CE7E8"/>
<stop offset="1" stop-color="#0089E9"/>
</linearGradient>
<linearGradient id="paint1_linear_37_19" x1="48.5456" y1="490.645" x2="817.432" y2="490.645" gradientUnits="userSpaceOnUse">
<stop offset="0.490385" stop-color="#2CE7E8"/>
<stop offset="1" stop-color="#0089E9"/>
</linearGradient>
<linearGradient id="paint2_linear_37_19" x1="48.5456" y1="490.645" x2="817.432" y2="490.645" gradientUnits="userSpaceOnUse">
<stop offset="0.490385" stop-color="#2CE7E8"/>
<stop offset="1" stop-color="#0089E9"/>
</linearGradient>
<linearGradient id="paint3_linear_37_19" x1="48.5456" y1="490.645" x2="817.432" y2="490.645" gradientUnits="userSpaceOnUse">
<stop offset="0.490385" stop-color="#2CE7E8"/>
<stop offset="1" stop-color="#0089E9"/>
</linearGradient>
<linearGradient id="paint4_linear_37_19" x1="48.5456" y1="490.645" x2="817.432" y2="490.645" gradientUnits="userSpaceOnUse">
<stop offset="0.490385" stop-color="#2CE7E8"/>
<stop offset="1" stop-color="#0089E9"/>
</linearGradient>
<linearGradient id="paint5_linear_37_19" x1="48.5456" y1="490.645" x2="817.432" y2="490.645" gradientUnits="userSpaceOnUse">
<stop offset="0.490385" stop-color="#2CE7E8"/>
<stop offset="1" stop-color="#0089E9"/>
</linearGradient>
<linearGradient id="paint6_linear_37_19" x1="48.5456" y1="490.645" x2="817.432" y2="490.645" gradientUnits="userSpaceOnUse">
<stop offset="0.490385" stop-color="#2CE7E8"/>
<stop offset="1" stop-color="#0089E9"/>
</linearGradient>
<linearGradient id="paint7_linear_37_19" x1="48.5456" y1="490.645" x2="817.432" y2="490.645" gradientUnits="userSpaceOnUse">
<stop offset="0.490385" stop-color="#2CE7E8"/>
<stop offset="1" stop-color="#0089E9"/>
</linearGradient>
<linearGradient id="paint8_linear_37_19" x1="48.5456" y1="490.645" x2="817.432" y2="490.645" gradientUnits="userSpaceOnUse">
<stop offset="0.490385" stop-color="#2CE7E8"/>
<stop offset="1" stop-color="#0089E9"/>
</linearGradient>
<linearGradient id="paint9_linear_37_19" x1="48.5456" y1="490.645" x2="817.432" y2="490.645" gradientUnits="userSpaceOnUse">
<stop offset="0.490385" stop-color="#2CE7E8"/>
<stop offset="1" stop-color="#0089E9"/>
</linearGradient>
<linearGradient id="paint10_linear_37_19" x1="48.5456" y1="490.645" x2="817.432" y2="490.645" gradientUnits="userSpaceOnUse">
<stop offset="0.490385" stop-color="#2CE7E8"/>
<stop offset="1" stop-color="#0089E9"/>
</linearGradient>
<linearGradient id="paint11_linear_37_19" x1="48.5456" y1="490.645" x2="817.432" y2="490.645" gradientUnits="userSpaceOnUse">
<stop offset="0.490385" stop-color="#2CE7E8"/>
<stop offset="1" stop-color="#0089E9"/>
</linearGradient>
<linearGradient id="paint12_linear_37_19" x1="48.5456" y1="490.645" x2="817.432" y2="490.645" gradientUnits="userSpaceOnUse">
<stop offset="0.490385" stop-color="#2CE7E8"/>
<stop offset="1" stop-color="#0089E9"/>
</linearGradient>
<linearGradient id="paint13_linear_37_19" x1="48.5456" y1="490.645" x2="817.432" y2="490.645" gradientUnits="userSpaceOnUse">
<stop offset="0.490385" stop-color="#2CE7E8"/>
<stop offset="1" stop-color="#0089E9"/>
</linearGradient>
<linearGradient id="paint14_linear_37_19" x1="48.5456" y1="490.645" x2="817.432" y2="490.645" gradientUnits="userSpaceOnUse">
<stop offset="0.490385" stop-color="#2CE7E8"/>
<stop offset="1" stop-color="#0089E9"/>
</linearGradient>
<linearGradient id="paint15_linear_37_19" x1="48.5456" y1="490.645" x2="817.432" y2="490.645" gradientUnits="userSpaceOnUse">
<stop offset="0.490385" stop-color="#2CE7E8"/>
<stop offset="1" stop-color="#0089E9"/>
</linearGradient>
<linearGradient id="paint16_linear_37_19" x1="48.5456" y1="490.645" x2="817.432" y2="490.645" gradientUnits="userSpaceOnUse">
<stop offset="0.490385" stop-color="#2CE7E8"/>
<stop offset="1" stop-color="#0089E9"/>
</linearGradient>
<linearGradient id="paint17_linear_37_19" x1="48.5456" y1="490.645" x2="817.432" y2="490.645" gradientUnits="userSpaceOnUse">
<stop offset="0.490385" stop-color="#2CE7E8"/>
<stop offset="1" stop-color="#0089E9"/>
</linearGradient>
<linearGradient id="paint18_linear_37_19" x1="48.5456" y1="490.645" x2="817.432" y2="490.645" gradientUnits="userSpaceOnUse">
<stop offset="0.490385" stop-color="#2CE7E8"/>
<stop offset="1" stop-color="#0089E9"/>
</linearGradient>
<linearGradient id="paint19_linear_37_19" x1="48.5456" y1="490.645" x2="817.432" y2="490.645" gradientUnits="userSpaceOnUse">
<stop offset="0.490385" stop-color="#2CE7E8"/>
<stop offset="1" stop-color="#0089E9"/>
</linearGradient>
<linearGradient id="paint20_linear_37_19" x1="48.5456" y1="490.645" x2="817.432" y2="490.645" gradientUnits="userSpaceOnUse">
<stop offset="0.490385" stop-color="#2CE7E8"/>
<stop offset="1" stop-color="#0089E9"/>
</linearGradient>
<linearGradient id="paint21_linear_37_19" x1="48.5456" y1="490.645" x2="817.432" y2="490.645" gradientUnits="userSpaceOnUse">
<stop offset="0.490385" stop-color="#2CE7E8"/>
<stop offset="1" stop-color="#0089E9"/>
</linearGradient>
<linearGradient id="paint22_linear_37_19" x1="48.5456" y1="490.645" x2="817.432" y2="490.645" gradientUnits="userSpaceOnUse">
<stop offset="0.490385" stop-color="#2CE7E8"/>
<stop offset="1" stop-color="#0089E9"/>
</linearGradient>
<linearGradient id="paint23_linear_37_19" x1="48.5456" y1="490.645" x2="817.432" y2="490.645" gradientUnits="userSpaceOnUse">
<stop offset="0.490385" stop-color="#2CE7E8"/>
<stop offset="1" stop-color="#0089E9"/>
</linearGradient>
<linearGradient id="paint24_linear_37_19" x1="48.5456" y1="490.645" x2="817.432" y2="490.645" gradientUnits="userSpaceOnUse">
<stop offset="0.490385" stop-color="#2CE7E8"/>
<stop offset="1" stop-color="#0089E9"/>
</linearGradient>
<linearGradient id="paint25_linear_37_19" x1="422" y1="498" x2="2282" y2="498" gradientUnits="userSpaceOnUse">
<stop stop-color="#2CE7E8"/>
<stop offset="0.730769" stop-color="#0089E9"/>
</linearGradient>
</defs>
</svg>
